#!OML:ASF E:\Steps\Project 1\Capture day 1\Session 2\Subject.ASF
:FULLY-SPECIFIED
:DEGREES
366
root 4.79901 18.7283 17.9476 -146.424 -7.20978 177.047
lowerback -15.2513 -1.77987 -10.384
upperback 3.56473 -0.249379 -1.5805
thorax 12.698 -0.888087 4.03187
lowerneck -1.99105 -0.434978 0.355556
upperneck 12.8898 -1.54473 3.03973
head 4.64788 -0.814528 0.878242
rclavicle 4.77083e-015 7.95139e-015
rhumerus -34.1662 -11.874 -80.0735
rradius 37.9386
rwrist -0.793803
rhand -9.06654 -49.226
rfingers 7.12502
rthumb 16.8824 -78.5122
lclavicle 4.77083e-015 7.95139e-015
lhumerus -16.469 -6.83501 77.366
lradius 53.3366
lwrist 7.98018
lhand -26.6004 -15.0184
lfingers 7.12502
lthumb -0.0341111 14.9613
rfemur -55.0854 5.59696 14.3088
rtibia 63.1664
rfoot -18.4957 -6.4607
rtoes -27.3187
lfemur -47.3286 -3.84073 -18.6642
ltibia 25.4403
lfoot -6.94988 -3.54221
ltoes -22.1637
367
root 4.74018 18.7528 17.9226 -146.45 -6.84548 177.099
lowerback -15.2886 -1.80486 -10.2395
upperback 3.47556 -0.30926 -1.64464
thorax 12.621 -0.896704 3.86457
lowerneck -1.94184 -0.320526 0.50976
upperneck 13.1024 -1.39434 2.77027
head 4.70894 -0.752273 0.766481
rclavicle 2.38542e-015 3.18055e-015
rhumerus -34.2851 -11.8822 -80.1096
rradius 38.3904
rwrist -1.0164
rhand -7.97825 -51.7288
rfingers 7.12502
rthumb 17.9298 -80.9223
lclavicle 2.38542e-015 3.18055e-015
lhumerus -16.7977 -7.01177 77.3417
lradius 53.1696
lwrist 7.95346
lhand -26.5717 -14.6494
lfingers 7.12502
lthumb -0.00642251 15.3303
rfemur -55.0929 6.19286 14.6357
rtibia 61.3585
rfoot -19.0955 -6.32475
rtoes -27.7411
lfemur -46.7642 -3.67512 -18.9405
ltibia 24.6783
lfoot -6.75973 -3.54048
ltoes -21.5855
368
root 4.67939 18.776 17.8963 -146.637 -6.49361 177.004
lowerback -15.2062 -1.90541 -10.2497
upperback 3.52495 -0.451447 -1.66328
thorax 12.6507 -0.967327 3.81108
lowerneck -1.94426 -0.239329 0.480845
upperneck 13.1245 -1.26308 2.59398
head 4.71361 -0.698118 0.717747
rclavicle 3.57812e-015 -1.11319e-014
rhumerus -34.1641 -11.5547 -80.1878
rradius 38.8767
rwrist -1.27481
rhand -9.37276 -50.5197
rfingers 7.12502
rthumb 16.5876 -79.8308
lclavicle 3.57812e-015 -1.11319e-014
lhumerus -17.0332 -6.95824 77.3958
lradius 53.0156
lwrist 7.79487
lhand -26.4144 -14.2938
lfingers 7.12502
lthumb 0.145529 15.6859
rfemur -54.9158 6.74839 14.74
rtibia 59.5561
rfoot -19.7406 -6.10711
rtoes -27.574
lfemur -45.953 -3.81534 -19.2936
ltibia 23.8658
lfoot -6.50242 -3.39187
ltoes -19.6467
369
root 4.62038 18.7959 17.8699 -146.838 -6.08361 176.916
lowerback -15.1263 -1.94963 -10.2586
upperback 3.54979 -0.517604 -1.71241
thorax 12.6412 -0.999009 3.74346
lowerneck -1.84667 -0.197732 0.408944
upperneck 13.163 -1.21425 2.59822
head 4.708 -0.682269 0.734199
rclavicle 3.97569e-015 1.00187e-013
rhumerus -34.1494 -11.3225 -80.2497
rradius 39.4119
rwrist -1.63914
rhand -10.3231 -50.1752
rfingers 7.12502
rthumb 15.6725 -79.5605
lclavicle 3.97569e-015 1.00187e-013
lhumerus -17.2722 -7.07493 77.462
lradius 52.7929
lwrist 7.81488
lhand -26.2092 -14.2306
lfingers 7.12502
lthumb 0.343653 15.7489
rfemur -54.9031 7.31898 14.8008
rtibia 58.1523
rfoot -20.431 -6.06552
rtoes -28.3512
lfemur -45.111 -3.85846 -19.6816
ltibia 23.0726
lfoot -6.22422 -3.26083
ltoes -17.1256
370
root 4.56407 18.8152 17.8418 -147.013 -5.73919 176.914
lowerback -14.9688 -1.96543 -10.138
upperback 3.49326 -0.585164 -1.75927
thorax 12.4864 -1.01198 3.60948
lowerneck -1.78169 -0.149812 0.32878
upperneck 13.1976 -1.15571 2.6122
head 4.70752 -0.660628 0.755863
rclavicle 1.94809e-014 -3.65764e-014
rhumerus -34.2393 -11.1206 -80.2707
rradius 39.8862
rwrist -2.18937
rhand -10.3631 -50.2133
rfingers 7.12502
rthumb 15.634 -79.6015
lclavicle 1.94809e-014 -3.65764e-014
lhumerus -17.5869 -7.3046 77.5023
lradius 52.5048
lwrist 7.90987
lhand -26.0136 -14.1999
lfingers 7.12502
lthumb 0.532601 15.7792
rfemur -54.4404 7.87091 14.9479
rtibia 56.1378
rfoot -20.819 -6.16912
rtoes -28.6201
lfemur -44.3268 -3.645 -20.0778
ltibia 22.2519
lfoot -5.96887 -3.22224
ltoes -16.4598
371
root 4.509 18.8348 17.8132 -147.045 -5.55038 176.748
lowerback -15.1375 -2.09596 -10.1124
upperback 3.54461 -0.739522 -1.81412
thorax 12.6682 -1.09073 3.48802
lowerneck -1.75541 -0.0531476 0.28107
upperneck 13.0238 -0.992922 2.53953
head 4.63502 -0.582989 0.746661
rclavicle 1.19271e-014 3.02153e-014
rhumerus -34.1544 -10.9962 -80.3096
rradius 40.38
rwrist -2.66748
rhand -10.0179 -50.1132
rfingers 7.12502
rthumb 15.9665 -79.4752
lclavicle 1.19271e-014 3.02153e-014
lhumerus -17.6027 -7.46469 77.4991
lradius 52.0883
lwrist 7.88721
lhand -25.7432 -13.8713
lfingers 7.12502
lthumb 0.793767 16.1069
rfemur -54.1786 8.1736 14.9476
rtibia 54.3599
rfoot -21.296 -6.51373
rtoes -27.5916
lfemur -43.7791 -3.67768 -20.5826
ltibia 21.5922
lfoot -5.85004 -3.16728
ltoes -17.3444
372
root 4.45302 18.8511 17.7797 -147.157 -5.28696 176.635
lowerback -15.2914 -2.20231 -10.0721
upperback 3.5841 -0.867333 -1.85627
thorax 12.823 -1.15423 3.3793
lowerneck -1.70504 0.046002 0.326536
upperneck 13.0113 -0.834078 2.3144
head 4.61559 -0.514318 0.669226
rclavicle -3.97569e-015 -3.10104e-014
rhumerus -34.1494 -10.8218 -80.3567
rradius 40.9424
rwrist -3.0604
rhand -9.54978 -50.091
rfingers 7.12502
rthumb 16.4172 -79.4162
lclavicle -3.97569e-015 -3.10104e-014
lhumerus -17.7206 -7.61749 77.5293
lradius 51.6624
lwrist 7.87056
lhand -25.4567 -13.4925
lfingers 7.12502
lthumb 1.07051 16.4845
rfemur -53.792 8.48744 15.0019
rtibia 52.3921
rfoot -21.4386 -6.83003
rtoes -28.3944
lfemur -43.1001 -3.83428 -20.9487
ltibia 20.9617
lfoot -5.88295 -2.96807
ltoes -17.4562
373
root 4.40171 18.8613 17.7542 -147.148 -4.9807 176.711
lowerback -15.5212 -2.2443 -9.94412
upperback 3.55381 -0.921927 -1.82667
thorax 12.9296 -1.17285 3.32253
lowerneck -1.57381 0.103826 0.212995
upperneck 12.9533 -0.753453 2.34377
head 4.56754 -0.481706 0.702496
rclavicle 1.19271e-015 -1.35174e-014
rhumerus -34.1059 -10.5499 -80.3824
rradius 41.4108
rwrist -3.6173
rhand -9.50447 -50.0611
rfingers 7.12502
rthumb 16.4608 -79.3828
lclavicle 1.19271e-015 -1.35174e-014
lhumerus -17.912 -7.84565 77.6568
lradius 51.2781
lwrist 7.8569
lhand -25.2593 -13.2512
lfingers 7.12502
lthumb 1.26109 16.7249
rfemur -53.5756 8.89273 15.1919
rtibia 50.3154
rfoot -21.4999 -6.37166
rtoes -29.9881
lfemur -42.7159 -3.68595 -21.1583
ltibia 20.4928
lfoot -5.8673 -2.79806
ltoes -18.0165
374
root 4.35164 18.8648 17.7375 -146.736 -4.45197 176.957
lowerback -16.1384 -2.19662 -9.7277
upperback 3.3983 -0.830893 -1.81255
thorax 13.098 -1.11369 3.23486
lowerneck -1.47351 0.178947 0.147488
upperneck 12.833 -0.647651 2.40471
head 4.50254 -0.430481 0.738745
rclavicle 6.36111e-015 -2.14687e-014
rhumerus -34.1367 -10.3551 -80.3986
rradius 42.0555
rwrist -4.31494
rhand -9.55494 -50.0629
rfingers 7.12502
rthumb 16.4122 -79.3886
lclavicle 6.36111e-015 -2.14687e-014
lhumerus -18.0732 -8.18824 77.7544
lradius 50.8769
lwrist 7.69241
lhand -25.0244 -13.1945
lfingers 7.12502
lthumb 1.48804 16.7801
rfemur -54.0073 9.53047 15.3028
rtibia 48.6095
rfoot -21.7783 -5.73615
rtoes -30.3238
lfemur -42.9281 -3.22113 -21.3191
ltibia 20.14
lfoot -5.81749 -2.54969
ltoes -19.5001
375
root 4.3011 18.8838 17.7042 -147.068 -4.64341 176.725
lowerback -15.9876 -2.3985 -9.72162
upperback 3.53296 -1.11714 -1.80097
thorax 13.2053 -1.25544 3.16304
lowerneck -1.48966 0.334498 0.3568
upperneck 12.8008 -0.395015 2.00815
head 4.48741 -0.312372 0.578603
rclavicle -1.35174e-014 -8.74653e-015
rhumerus -34.079 -10.1207 -80.4672
rradius 42.8345
rwrist -5.10812
rhand -9.10123 -50.4232
rfingers 7.12502
rthumb 16.849 -79.7122
lclavicle -1.35174e-014 -8.74653e-015
lhumerus -18.1711 -8.35895 77.8173
lradius 50.3304
lwrist 7.13817
lhand -25.0173 -13.485
lfingers 7.12502
lthumb 1.49485 16.4895
rfemur -53.0717 9.61296 15.3198
rtibia 46.5656
rfoot -22.1063 -5.80121
rtoes -30.1777
lfemur -42.1496 -3.48803 -21.7554
ltibia 19.6306
lfoot -5.67407 -2.64637
ltoes -19.5301
